<svg width="104" height="31" viewBox="0 0 104 31" fill="none" xmlns="http://www.w3.org/2000/svg">
<path d="M7.55719 20.2813C7.55719 20.0414 7.52028 19.8261 7.44646 19.6354C7.3788 19.4386 7.24961 19.2602 7.05892 19.1002C6.86822 18.9341 6.60062 18.7711 6.25614 18.6112C5.91165 18.4512 5.46566 18.2851 4.91817 18.1129C4.30917 17.916 3.73092 17.6946 3.18343 17.4485C2.6421 17.2025 2.16227 16.9164 1.74397 16.5904C1.33181 16.2582 1.00578 15.8737 0.765869 15.437C0.53211 15.0002 0.41523 14.4927 0.41523 13.9144C0.41523 13.3547 0.538262 12.8472 0.784324 12.3919C1.03039 11.9306 1.37487 11.5369 1.81779 11.2108C2.2607 10.8787 2.74667 10.5403 3.34952 10.3619C3.95853 10.1835 4.66288 10.1774 5.38877 10.1774C6.37917 10.1774 7.24346 10.3558 7.98165 10.7126C8.71984 11.0694 9.29193 11.5584 9.69794 12.1797C10.1101 12.801 10.3162 13.5115 10.3162 14.3112H7.56642C7.56642 13.9175 7.48337 13.573 7.31728 13.2778C7.15734 12.9763 6.91128 12.7395 6.57909 12.5673C6.25306 12.395 5.84091 12.3089 5.34263 12.3089C4.86281 12.3089 4.46296 12.3827 4.14308 12.5303C3.8232 12.6718 3.58328 12.8656 3.42334 13.1117C3.2634 13.3516 3.18343 13.6222 3.18343 13.9237C3.18343 14.1513 3.2388 14.3574 3.34952 14.5419C3.4664 14.7265 3.63865 14.8987 3.86626 15.0586C4.09386 15.2186 4.37376 15.3693 4.70594 15.5108C5.03813 15.6523 5.4226 15.7907 5.85936 15.926C6.5914 16.1475 7.23424 16.3966 7.78788 16.6734C8.34767 16.9502 8.81519 17.2609 9.19043 17.6054C9.56568 17.9499 9.84865 18.3405 10.0393 18.7773C10.23 19.214 10.3254 19.7092 10.3254 20.2629C10.3254 20.8473 10.2116 21.3701 9.98398 21.8315C9.75638 22.2929 9.42727 22.6835 8.99666 23.0034C8.56605 23.3233 8.05239 23.5663 7.45569 23.7323C6.85899 23.8984 6.19155 23.9815 5.45336 23.9815C4.78899 23.9815 4.13385 23.8954 3.48794 23.7231C2.84202 23.5447 2.25455 23.2771 1.72551 22.9203C1.20263 22.5635 0.784324 22.1083 0.470594 21.5547C0.156865 21.0011 0 20.3459 0 19.5893H2.77743C2.77743 20.0076 2.84202 20.3613 2.9712 20.6504C3.10039 20.9395 3.28186 21.1733 3.51562 21.3517C3.75553 21.5301 4.0385 21.6593 4.36453 21.7392C4.69672 21.8192 5.05966 21.8592 5.45336 21.8592C5.93318 21.8592 6.32688 21.7915 6.63446 21.6562C6.94819 21.5209 7.17887 21.3332 7.32651 21.0933C7.4803 20.8534 7.55719 20.5827 7.55719 20.2813Z" fill="#6744A0"/>
<path d="M16.9322 13.8129V15.6953H11.1189V13.8129H16.9322ZM10.3254 7.34906L15.2159 11.3492V20.7888C15.2159 21.0779 15.2528 21.2994 15.3266 21.4532C15.4066 21.607 15.5235 21.7146 15.6773 21.7761C15.831 21.8315 16.0248 21.8592 16.2586 21.8592C16.4247 21.8592 16.5723 21.853 16.7015 21.8407C16.8368 21.8223 16.9506 21.8038 17.0429 21.7854L17.0521 23.7416C16.8245 23.8154 16.5785 23.8738 16.3139 23.9169C16.0494 23.96 15.7572 23.9815 15.4373 23.9815C14.8529 23.9815 14.3424 23.8861 13.9056 23.6954C13.475 23.4986 13.1428 23.1849 12.9091 22.7542C12.6753 22.3236 12.5584 21.7577 12.5584 21.0564L10.3254 7.34906Z" fill="#6744A0"/>
<path d="M21.1029 15.9906V23.7969H18.4455V13.8129L21.5831 14.3112L21.1029 15.9906ZM24.111 13.7484L24.0649 16.2121C23.9357 16.1936 23.7789 16.1782 23.5943 16.1659C23.4159 16.1475 23.2529 16.1382 23.1053 16.1382C22.73 16.1382 22.404 16.1874 22.1272 16.2859C21.8565 16.3781 21.6289 16.5166 21.4443 16.7011C21.2659 16.8857 21.1306 17.1102 21.0383 17.3747C20.9522 17.6392 20.903 17.9406 20.8907 18.279L20.3555 18.1129C20.3555 17.467 20.4201 16.8733 20.5493 16.332C20.6785 15.7845 20.8661 15.3078 21.1122 14.9018C21.3644 14.4958 21.6719 14.182 22.0349 13.9606C22.3978 13.7391 22.8131 13.6284 23.2806 13.6284C23.4282 13.6284 23.5789 13.6407 23.7327 13.6653C23.8865 13.6838 24.0126 13.7114 24.111 13.7484Z" fill="#6744A0"/>
<path d="M29.7766 23.9815C29.0015 23.9815 28.3064 23.8585 27.6913 23.6124C27.0761 23.3602 26.5532 23.0126 26.1226 22.5697C25.6981 22.1268 25.3721 21.6131 25.1445 21.0287C24.9169 20.4382 24.8031 19.8107 24.8031 19.1464V18.7773C24.8031 18.0206 24.9107 17.3286 25.1261 16.7011C25.3414 16.0736 25.6489 15.5292 26.0488 15.0679C26.4548 14.6065 21.5489 7.59512 22.1272 7.34906C22.7054 7.09685 28.7555 13.6284 29.4814 13.6284C30.1888 13.6284 30.8162 13.7453 31.3637 13.979C31.9112 14.2128 32.3695 14.545 32.7386 14.9756C33.1139 15.4062 33.3968 15.9229 33.5875 16.5258C33.7782 17.1225 33.8736 17.7869 33.8736 18.5189V19.6262H25.9381V17.8545H31.2622V17.6515C31.2622 17.2824 31.1946 16.9533 31.0592 16.6642C30.93 16.3689 30.7332 16.1352 30.4687 15.9629C30.2042 15.7907 29.8658 15.7046 29.4537 15.7046C29.103 15.7046 28.8016 15.7814 28.5494 15.9352C28.2972 16.089 28.0911 16.3043 27.9312 16.5812C27.7774 16.858 27.6605 17.184 27.5805 17.5592C27.5067 17.9283 27.4698 18.3343 27.4698 18.7773V19.1464C27.4698 19.5462 27.5252 19.9153 27.6359 20.2536C27.7528 20.592 27.9158 20.8842 28.1249 21.1302C28.3402 21.3763 28.5986 21.567 28.9 21.7023C29.2076 21.8377 29.5552 21.9053 29.9427 21.9053C30.4225 21.9053 30.8685 21.8131 31.2807 21.6285C31.699 21.4378 32.0589 21.1518 32.3603 20.7704L33.6521 22.1729C33.443 22.4744 33.1569 22.7635 32.794 23.0403C32.4372 23.3171 32.0066 23.5447 31.5021 23.7231C30.9977 23.8954 30.4225 23.9815 29.7766 23.9815Z" fill="#6744A0"/>
<path d="M40.7756 21.5455V17.0979C40.7756 16.778 40.7233 16.5043 40.6188 16.2766C40.5142 16.0429 40.3512 15.8614 40.1297 15.7322C39.9144 15.6031 39.6345 15.5385 39.29 15.5385C38.9947 15.5385 38.7395 15.5907 38.5242 15.6953C38.3088 15.7937 38.1428 15.9383 38.0259 16.129C37.909 16.3136 37.8506 16.5319 37.8506 16.7842H35.1931C35.1931 16.3597 35.2915 15.9568 35.4884 15.5754C35.6852 15.194 35.9713 14.8587 36.3465 14.5696C36.7217 14.2743 37.057 13.9144 37.5737 13.7484C38.0966 13.5823 38.7917 13.6284 39.4377 13.6284C40.2128 13.6284 40.9017 13.7576 41.5046 14.0159C42.1074 14.2743 42.5811 14.6619 42.9256 15.1786C43.2762 15.6953 43.4516 16.3412 43.4516 17.1163V21.3886C43.4516 21.9361 43.4854 22.3852 43.5531 22.7358C43.6207 23.0803 43.7191 23.3817 43.8483 23.6401V23.7969H41.1632C41.034 23.5263 40.9356 23.1879 40.8679 22.7819C40.8064 22.3698 40.7756 21.9576 40.7756 21.5455ZM41.1263 17.7161L41.1447 19.2202H39.6591C39.3085 19.2202 39.004 19.2602 38.7456 19.3401C38.4872 19.4201 38.275 19.5339 38.1089 19.6815C37.9428 19.823 37.8198 19.9891 37.7398 20.1798C37.666 20.3705 37.6291 20.5797 37.6291 20.8073C37.6291 21.0349 37.6814 21.241 37.786 21.4255C37.8905 21.6039 38.0413 21.7454 38.2381 21.85C38.435 21.9484 38.6656 21.9976 38.9302 21.9976C39.33 21.9976 39.6776 21.9176 39.9728 21.7577C40.2681 21.5978 40.4957 21.4009 40.6557 21.1671C40.8218 20.9334 40.9079 20.7119 40.914 20.5028L41.6153 21.6285C41.5169 21.8807 41.3816 22.1422 41.2093 22.4128C41.0432 22.6835 40.831 22.9388 40.5726 23.1787C40.3143 23.4125 40.0036 23.6062 39.6407 23.76C39.2777 23.9077 38.8471 23.9815 38.3488 23.9815C37.7152 23.9815 37.14 23.8554 36.6233 23.6032C36.1127 23.3448 35.7067 22.9911 35.4053 22.542C35.11 22.0868 34.9624 21.5701 34.9624 20.9918C34.9624 20.4689 35.0608 20.0045 35.2577 19.5985C35.4545 19.1925 35.7436 18.8511 36.125 18.5743C36.5126 18.2913 36.9955 18.0791 37.5737 17.9376C38.152 17.7899 38.8225 17.7161 39.5853 17.7161H41.1263Z" fill="#6744A0"/>
<path d="M48.1575 15.8799V23.7969H45.4908V13.8129L45.2075 8.39893L48.1575 15.8799ZM47.7884 18.4543H47.0502C47.0502 17.7592 47.1333 17.1194 47.2994 16.535C47.4716 15.9445 47.7207 15.4339 48.0468 15.0033C48.379 14.5665 48.788 14.2282 49.274 13.9883C49.76 13.7484 50.3228 13.6284 50.9626 13.6284C51.4055 13.6284 51.8115 13.6961 52.1806 13.8314C52.5497 13.9606 52.8665 14.1667 53.131 14.4496C53.4017 14.7265 53.6109 15.0894 53.7585 15.5385C53.9061 15.9814 53.9799 16.5135 53.9799 17.1348V23.7969H51.3225V17.4301C51.3225 16.9749 51.261 16.6242 51.1379 16.3781C51.0149 16.1321 50.8396 15.9598 50.612 15.8614C50.3905 15.763 50.1229 15.7138 49.8092 15.7138C49.4647 15.7138 49.1633 15.7845 48.9049 15.926C48.6527 16.0675 48.4435 16.2643 48.2775 16.5166C48.1114 16.7626 47.9883 17.0517 47.9084 17.3839C47.8284 17.7161 47.7884 18.0729 47.7884 18.4543ZM53.7308 18.1498L52.7804 18.2698C52.7804 17.6177 52.8604 17.0118 53.0203 16.452C53.1864 15.8922 53.4294 15.4 53.7493 14.9756C54.0753 14.5511 54.4782 14.222 54.958 13.9883C55.4379 13.7484 55.9915 13.6284 56.619 13.6284C57.0988 13.6284 57.5355 13.6991 57.9292 13.8406C58.3229 13.976 58.6582 14.1943 58.935 14.4958C59.218 14.791 59.4333 15.1786 59.5809 15.6584C59.7347 16.1382 59.8116 16.7257 59.8116 17.4208V23.7969H57.1449V17.4208C57.1449 16.9595 57.0834 16.6088 56.9604 16.3689C56.8435 16.1229 56.6713 15.9537 56.4436 15.8614C56.2222 15.763 55.9577 15.7138 55.6501 15.7138C55.3302 15.7138 55.0503 15.7784 54.8104 15.9076C54.5705 16.0306 54.3706 16.2028 54.2106 16.4243C54.0507 16.6457 53.9307 16.9041 53.8508 17.1994C53.7708 17.4885 53.7308 17.8053 53.7308 18.1498Z" fill="#6744A0"/>
<path d="M76.7035 0L77.6758 23.7969H74.9076L69.5096 14.791L69.0045 30.0962L66.7414 23.7969V10.3619H69.5096L74.9168 19.377V10.3619L76.7035 0Z" fill="#6744A0"/>
<path d="M79.4935 18.9064V18.7127C79.4935 17.9806 79.5981 17.307 79.8073 16.6919C80.0164 16.0706 80.3209 15.5323 80.7208 15.0771C81.1206 14.6219 81.6128 14.2682 82.1972 14.0159C82.7816 13.7576 83.4521 13.6284 84.2087 13.6284C84.9654 13.6284 85.639 13.7576 86.2295 14.0159C86.8201 14.2682 87.3153 14.6219 87.7151 15.0771C88.1211 15.5323 88.4287 16.0706 88.6378 16.6919C88.847 17.307 88.9516 17.9806 88.9516 18.7127V18.9064C88.9516 19.6323 88.847 20.3059 88.6378 20.9272C88.4287 21.5424 88.1211 22.0806 87.7151 22.542C87.3153 22.9972 86.8231 23.3509 86.2387 23.6032C85.6543 23.8554 84.9838 23.9815 84.2272 23.9815C83.4705 23.9815 82.7969 23.8554 82.2064 23.6032C81.622 23.3509 81.1268 22.9972 80.7208 22.542C80.3209 22.0806 80.0164 21.5424 79.8073 20.9272C79.5981 20.3059 79.4935 19.6323 79.4935 18.9064ZM82.151 18.7127V18.9064C82.151 19.3247 82.1879 19.7154 82.2617 20.0783C82.3356 20.4413 82.4524 20.7611 82.6124 21.038C82.7785 21.3086 82.9938 21.5209 83.2583 21.6746C83.5228 21.8284 83.8458 21.9053 84.2272 21.9053C84.5963 21.9053 84.9131 21.8284 85.1776 21.6746C85.4421 21.5209 85.6543 21.3086 85.8143 21.038C85.9742 20.7611 86.0911 20.4413 86.1649 20.0783C86.2449 19.7154 86.2849 19.3247 86.2849 18.9064V18.7127C86.2849 18.3067 86.2449 17.9253 86.1649 17.5685C86.0911 17.2055 85.9711 16.8857 85.805 16.6088C85.6451 16.3259 85.4329 16.1044 85.1684 15.9445C84.9038 15.7845 84.584 15.7046 84.2087 15.7046C83.8335 15.7046 83.5136 15.7845 83.2491 15.9445C82.9907 16.1044 82.7785 16.3259 82.6124 16.6088C82.4524 16.8857 82.3356 17.2055 82.2617 17.5685C82.1879 17.9253 82.151 18.3067 82.151 18.7127Z" fill="#6744A0"/>
<path d="M93.4361 21.2133L95.5122 13.8129H97.2008L96.6564 16.7196L94.0082 23.7969H93.1685L93.4361 21.2133ZM92.3841 13.8129L93.8697 21.2041L94.0082 23.7969L91.0516 26.9466L88.9516 11.1986L92.3841 13.8129ZM99.1016 21.0841L100.55 13.8129L104 9.79875L102.6 27.2965L98.9448 23.7969L99.1016 21.0841ZM97.4315 13.8129L99.4984 21.1579L99.7845 23.7969H98.9448L96.2873 16.7288L95.7613 13.8129H97.4315Z" fill="#6744A0"/>
</svg>
